<?xml version="1.0" standalone="no"?>
<svg viewBox="0 0 200 200" xmlns="http://www.w3.org/2000/svg">
  <path fill="#0F62FE" d="M48.1,-64.4C60.5,-57.1,67.5,-40.7,67.5,-25.5C67.5,-10.3,60.5,3.5,57,19.8C53.5,36.1,53.5,54.9,44.6,63.6C35.7,72.3,17.8,70.9,1.8,68.5C-14.3,66,-28.6,62.6,-41.6,55.2C-54.6,47.8,-66.3,36.6,-73.8,22C-81.4,7.4,-84.7,-10.6,-78.3,-23.9C-71.8,-37.1,-55.6,-45.6,-40.9,-52.1C-26.2,-58.7,-13.1,-63.3,2.4,-66.5C17.8,-69.8,35.6,-71.7,48.1,-64.4Z" transform="translate(100 100)" />
</svg>
